<?xml version="1.0" standalone="no"?>
<!DOCTYPE svg PUBLIC "-//W3C//DTD SVG 20010904//EN"
 "http://www.w3.org/TR/2001/REC-SVG-20010904/DTD/svg10.dtd">
<svg version="1.0" xmlns="http://www.w3.org/2000/svg"
 width="1000.000000pt" height="1080.000000pt" viewBox="0 0 1000.000000 1080.000000"
 preserveAspectRatio="xMidYMid meet">

<g transform="translate(0.000000,1080.000000) scale(0.100000,-0.100000)"
fill="#000000" stroke="none">
<path d="M4885 8917 c-193 -336 -1036 -1810 -1042 -1822 -9 -16 155 150 617
625 238 245 463 476 499 513 l67 68 556 -588 c305 -324 564 -595 574 -603 12
-10 8 2 -13 40 -17 30 -273 492 -568 1025 -295 534 -540 973 -544 977 -4 4
-69 -101 -146 -235z m220 -210 c117 -65 105 -245 -19 -292 -112 -43 -226 33
-226 149 0 129 132 206 245 143z m-340 -402 c14 -13 25 -36 25 -50 0 -14 -11
-37 -25 -50 -69 -70 -170 30 -103 102 29 31 72 30 103 -2z m605 5 c45 -45 13
-130 -49 -130 -45 0 -75 30 -75 75 0 66 78 101 124 55z m-828 -336 c14 -31
-13 -74 -46 -74 -33 0 -60 33 -52 65 12 47 78 53 98 9z m1026 20 c41 -29 19
-94 -32 -94 -47 0 -65 52 -31 86 28 28 33 29 63 8z m-1211 -253 c14 -29 4 -55
-28 -71 -28 -15 -69 11 -69 45 0 55 73 74 97 26z m1394 19 c29 -16 25 -65 -6
-86 -23 -15 -27 -15 -50 0 -44 29 -28 95 23 96 7 0 22 -5 33 -10z"/>
<path d="M4873 7935 c-206 -45 -372 -212 -381 -386 -5 -78 18 -133 70 -171 27
-19 45 -23 103 -23 110 1 189 54 216 146 14 45 7 59 -18 37 -50 -44 -122 -60
-165 -37 -24 13 -57 83 -58 122 -1 98 117 214 297 293 76 33 77 34 38 33 -22
0 -68 -7 -102 -14z"/>
<path d="M5110 7917 c182 -80 300 -195 300 -292 0 -40 -33 -111 -58 -124 -43
-23 -115 -7 -165 37 -23 21 -30 11 -21 -33 20 -109 193 -190 299 -139 58 27
95 93 95 170 0 127 -112 283 -252 352 -69 34 -176 62 -238 62 -32 0 -28 -3 40
-33z"/>
<path d="M4857 7833 c-15 -15 -6 -52 14 -58 28 -9 53 16 44 44 -6 20 -43 29
-58 14z"/>
<path d="M5135 7819 c-5 -13 -2 -27 8 -36 24 -24 59 -8 55 25 -4 36 -53 45
-63 11z"/>
<path d="M5002 7608 c-24 -205 -85 -276 -272 -316 l-78 -17 69 -50 c38 -27 67
-54 65 -60 -2 -5 11 -16 28 -22 29 -12 27 -12 -22 -7 -59 7 -81 -5 -109 -60
-14 -27 -14 -28 3 -21 78 34 175 2 263 -89 l53 -53 47 46 c32 33 61 51 96 62
61 17 164 16 227 -4 l48 -15 -23 29 c-12 15 -47 47 -77 69 -51 39 -58 41 -105
36 -45 -5 -47 -4 -20 6 17 6 32 14 35 18 3 4 46 33 95 66 l90 58 -41 6 c-54 8
-137 50 -206 105 -66 53 -98 110 -132 235 l-22 82 -12 -104z"/>
<path d="M4736 7685 c-25 -25 -20 -72 9 -91 31 -21 53 -15 79 19 19 26 19 30
5 55 -18 33 -68 42 -93 17z"/>
<path d="M5226 7678 c-21 -30 -20 -50 4 -76 24 -26 47 -28 78 -6 26 18 30 65
6 88 -23 24 -70 20 -88 -6z"/>
<path d="M4208 7286 c-54 -57 -98 -106 -98 -110 0 -3 44 23 98 59 l97 65 164
-51 c90 -27 165 -48 167 -46 4 3 -320 188 -328 186 -1 0 -47 -47 -100 -103z"/>
<path d="M5533 7297 c-90 -50 -161 -92 -159 -94 1 -2 76 19 165 47 l161 49 98
-62 c53 -35 104 -67 112 -72 8 -5 -34 43 -93 106 -60 63 -112 115 -115 116 -4
1 -80 -39 -169 -90z"/>
<path d="M4154 7137 l-151 -72 53 -16 c30 -9 76 -31 103 -48 71 -46 188 -172
261 -284 36 -53 65 -95 67 -94 1 2 -2 20 -7 42 -14 58 -12 172 4 230 21 79 54
136 118 198 33 32 58 60 56 61 -2 3 -231 39 -323 51 -22 3 -70 -15 -181 -68z"/>
<path d="M5503 7181 l-162 -26 59 -53 c43 -38 69 -73 97 -129 34 -69 38 -85
41 -172 2 -53 -1 -116 -6 -140 -12 -51 -12 -51 61 60 106 163 236 283 349 324
l59 21 -153 72 c-84 40 -160 72 -168 71 -8 -1 -88 -13 -177 -28z"/>
<path d="M4683 6986 c-41 -13 -89 -42 -130 -79 l-23 -20 68 -35 c134 -69 239
-156 262 -218 20 -53 12 -83 -36 -134 -57 -61 -170 -149 -244 -189 l-54 -30
30 -6 c185 -42 324 -140 392 -277 39 -79 62 -170 45 -175 -99 -33 -124 -156
-44 -210 43 -29 79 -29 122 0 40 27 60 78 48 121 -9 32 -46 76 -63 76 -34 1
-38 16 -22 80 46 180 199 329 381 371 28 6 56 13 64 16 8 2 -12 19 -45 39
-137 82 -267 198 -280 248 -20 82 70 180 255 279 l82 44 -38 33 c-45 40 -106
68 -165 76 -93 13 -191 -58 -248 -177 l-27 -59 -32 65 c-51 104 -147 176 -231
174 -14 0 -44 -6 -67 -13z m433 -566 c27 -28 43 -54 38 -58 -5 -5 -26 -21 -47
-36 -21 -15 -50 -50 -65 -77 -15 -27 -30 -49 -33 -49 -4 0 -10 11 -13 25 -7
27 -87 114 -120 132 -18 10 -15 14 28 59 26 27 61 77 78 111 l31 63 28 -60
c15 -33 49 -83 75 -110z"/>
<path d="M4972 6408 c-30 -30 -2 -88 42 -88 29 0 46 18 46 50 0 14 -5 31 -12
38 -7 7 -24 12 -38 12 -14 0 -31 -5 -38 -12z"/>
<path d="M3686 6895 c-94 -33 -166 -138 -186 -269 -25 -159 28 -314 142 -423
63 -59 129 -95 215 -117 238 -62 453 64 595 349 50 99 46 105 -24 39 -121
-113 -225 -138 -264 -63 -14 27 -13 32 18 86 78 138 23 270 -148 356 -107 54
-262 73 -348 42z m218 -246 c58 -45 71 -114 33 -170 -41 -61 -113 -77 -175
-39 -70 43 -78 136 -17 197 28 28 40 33 83 33 35 0 57 -6 76 -21z m142 -344
c21 -32 7 -69 -30 -87 -55 -24 -103 53 -60 96 25 25 71 20 90 -9z"/>
<path d="M6065 6892 c-240 -73 -340 -231 -247 -395 31 -54 32 -59 18 -86 -39
-75 -143 -50 -264 63 -74 70 -76 60 -11 -62 144 -271 350 -386 582 -326 86 22
152 58 215 117 98 94 143 199 145 342 1 154 -50 270 -147 329 -43 27 -58 30
-140 33 -65 2 -108 -2 -151 -15z m190 -255 c61 -61 53 -154 -17 -197 -62 -38
-134 -22 -175 39 -57 85 4 191 109 191 43 0 55 -5 83 -33z m-211 -323 c43 -43
-5 -120 -60 -96 -13 7 -29 23 -36 36 -24 55 53 103 96 60z"/>
<path d="M4613 6701 c-39 -25 -53 -49 -53 -96 0 -77 81 -133 150 -105 46 19
70 55 70 106 0 88 -93 141 -167 95z"/>
<path d="M5314 6711 c-61 -26 -85 -122 -44 -174 29 -36 81 -52 125 -37 111 37
96 203 -20 215 -22 3 -50 1 -61 -4z"/>
<path d="M4281 6651 c-24 -24 -26 -40 -9 -76 22 -50 97 -46 119 6 10 27 10 36
-2 58 -20 35 -79 41 -108 12z"/>
<path d="M5614 6645 c-29 -44 2 -105 54 -105 33 0 45 8 61 37 16 31 14 50 -9
73 -29 29 -85 27 -106 -5z"/>
<path d="M4500 6430 c-11 -11 -20 -26 -20 -33 0 -22 31 -57 51 -57 23 0 59 34
59 55 0 19 -36 55 -55 55 -8 0 -24 -9 -35 -20z"/>
<path d="M5442 6434 c-27 -18 -29 -55 -4 -77 25 -23 48 -21 73 4 22 22 19 55
-9 77 -21 16 -33 15 -60 -4z"/>
<path d="M3180 6028 c-85 -133 -161 -252 -168 -264 -12 -22 -3 -33 149 -196
176 -189 244 -258 237 -243 -3 6 -60 107 -126 225 l-122 216 95 249 c52 136
94 249 93 251 -2 1 -73 -106 -158 -238z"/>
<path d="M3447 6252 c-10 -10 -17 -28 -17 -40 0 -28 34 -62 60 -62 27 0 60 35
60 63 0 50 -70 76 -103 39z"/>
<path d="M4410 6255 c-18 -21 -4 -47 22 -43 29 4 35 34 10 47 -15 8 -23 7 -32
-4z"/>
<path d="M5560 6255 c-18 -21 -4 -47 22 -43 29 4 35 34 10 47 -15 8 -23 7 -32
-4z"/>
<path d="M6467 6252 c-10 -10 -17 -28 -17 -40 0 -28 34 -62 60 -62 27 0 60 35
60 63 0 50 -70 76 -103 39z"/>
<path d="M6620 6198 c-75 -130 -231 -242 -379 -274 -74 -15 -213 -18 -281 -4
-25 4 -46 7 -48 5 -2 -1 37 -24 85 -50 140 -74 276 -170 373 -261 103 -98 147
-161 183 -259 14 -38 26 -62 26 -52 1 10 5 16 10 13 7 -4 350 353 398 415 11
13 -10 52 -137 249 -82 128 -152 236 -155 239 -7 6 8 -35 93 -256 l69 -181
-130 -231 c-71 -127 -132 -230 -134 -228 -2 3 35 103 83 223 47 121 86 230 86
244 -1 25 -98 459 -104 465 -2 2 -19 -24 -38 -57z"/>
<path d="M3345 6229 c-2 -8 -27 -115 -55 -239 l-50 -225 93 -236 93 -236 23
66 c32 92 78 156 180 253 100 95 223 183 364 258 54 29 97 54 95 55 -2 2 -23
-1 -48 -5 -68 -14 -207 -11 -281 4 -143 31 -287 132 -371 260 -23 36 -40 53
-43 45z"/>
<path d="M4439 6165 c-26 -8 -68 -30 -95 -47 -100 -68 -147 -168 -148 -313 l0
-80 -81 0 c-64 0 -90 -5 -128 -24 -62 -30 -157 -118 -211 -195 -75 -106 -75
-112 -2 -62 169 116 357 127 549 33 49 -25 66 -29 61 -18 -36 86 -74 269 -74
357 0 64 23 96 85 120 57 21 202 14 315 -15 41 -11 75 -19 76 -18 1 1 -2 25
-7 52 -14 77 -58 155 -107 189 -37 26 -54 31 -115 33 -43 2 -91 -3 -118 -12z"/>
<path d="M5351 6159 c-51 -26 -94 -81 -115 -147 -14 -45 -28 -112 -23 -112 1
0 36 9 77 20 113 30 258 37 315 16 62 -24 85 -56 85 -120 0 -88 -38 -271 -74
-357 -5 -11 12 -7 61 18 101 49 182 66 283 60 102 -6 171 -30 264 -92 75 -51
75 -45 0 61 -54 77 -149 165 -211 195 -39 20 -64 24 -131 24 l-84 0 6 44 c15
108 -33 250 -106 316 -95 86 -255 121 -347 74z"/>
<path d="M3602 6118 c-18 -18 -14 -46 9 -58 26 -14 49 3 49 35 0 32 -35 46
-58 23z"/>
<path d="M6353 6123 c-18 -6 -16 -48 1 -62 19 -16 56 2 56 27 0 32 -26 48 -57
35z"/>
<path d="M3745 6030 c-13 -41 43 -70 64 -33 13 25 -5 53 -34 53 -15 0 -26 -7
-30 -20z"/>
<path d="M6191 6032 c-20 -38 31 -71 59 -37 6 8 9 23 5 35 -8 25 -51 27 -64 2z"/>
<path d="M3932 6028 c-18 -18 -14 -46 7 -58 38 -20 71 13 51 51 -12 21 -40 25
-58 7z"/>
<path d="M6010 6021 c-12 -23 -5 -47 16 -55 21 -8 42 3 49 25 14 42 -44 68
-65 30z"/>
<path d="M4385 5865 c-14 -13 -25 -35 -25 -48 0 -29 39 -67 69 -67 28 0 71 42
71 70 0 27 -43 70 -70 70 -11 0 -32 -11 -45 -25z"/>
<path d="M5525 5865 c-14 -13 -25 -33 -25 -45 0 -28 43 -70 73 -70 29 0 67 39
67 69 0 28 -42 71 -70 71 -11 0 -32 -11 -45 -25z"/>
<path d="M4587 5864 c-12 -13 -8 -42 8 -48 25 -9 46 5 43 28 -3 21 -37 34 -51
20z"/>
<path d="M5367 5864 c-12 -13 -8 -42 8 -48 25 -9 46 5 43 28 -3 21 -37 34 -51
20z"/>
<path d="M4077 5853 c-15 -14 -7 -63 12 -73 39 -20 82 22 61 60 -10 20 -58 28
-73 13z"/>
<path d="M5851 5841 c-21 -39 20 -82 60 -61 15 9 19 19 17 43 -3 28 -7 32 -35
35 -23 2 -34 -2 -42 -17z"/>
<path d="M4760 5825 c-11 -13 -11 -19 3 -32 21 -21 49 -9 45 19 -4 28 -30 35
-48 13z"/>
<path d="M5194 5825 c-8 -21 2 -45 19 -45 8 0 20 7 27 15 10 12 10 18 0 30 -7
8 -19 15 -27 15 -7 0 -16 -7 -19 -15z"/>
<path d="M3923 5763 c-7 -2 -13 -16 -13 -29 0 -19 5 -24 25 -24 30 0 43 24 25
45 -13 16 -17 17 -37 8z"/>
<path d="M6040 5755 c-18 -21 -5 -45 25 -45 20 0 25 5 25 24 0 13 -7 27 -16
30 -21 8 -20 8 -34 -9z"/>
<path d="M4521 5736 c-22 -23 -23 -32 -19 -95 4 -58 15 -89 66 -198 107 -226
137 -350 136 -558 -2 -174 -37 -330 -119 -528 -6 -15 6 -12 64 17 51 26 75 44
82 64 27 69 60 266 65 382 5 110 2 144 -24 290 -37 202 -47 322 -30 370 11 30
18 35 48 38 27 2 46 -5 78 -28 l43 -31 -7 37 c-20 110 -29 128 -79 166 -77 58
-153 91 -220 96 -54 3 -62 1 -84 -22z"/>
<path d="M5315 5743 c-47 -19 -165 -93 -181 -114 -9 -11 -44 -141 -44 -164 0
-3 19 9 42 25 32 23 51 30 78 28 30 -3 37 -8 48 -38 17 -48 7 -168 -30 -370
-26 -146 -29 -180 -24 -290 5 -116 38 -313 65 -382 7 -20 31 -38 82 -64 58
-29 70 -32 64 -17 -82 198 -117 354 -119 528 -1 208 29 332 136 558 51 109 62
140 66 198 4 63 2 72 -18 94 -19 20 -33 25 -74 24 -28 0 -69 -7 -91 -16z"/>
<path d="M3764 5665 c-8 -21 2 -45 19 -45 21 0 38 25 31 44 -8 20 -43 21 -50
1z"/>
<path d="M6186 5664 c-9 -22 17 -49 39 -40 10 3 15 15 13 28 -4 29 -42 37 -52
12z"/>
<path d="M4418 5599 c-36 -21 -16 -79 27 -79 43 0 59 44 27 73 -21 19 -30 20
-54 6z"/>
<path d="M5527 5592 c-30 -33 -15 -72 28 -72 44 0 63 60 26 80 -27 14 -35 13
-54 -8z"/>
<path d="M2460 5569 c-175 -29 -322 -184 -321 -339 0 -74 14 -127 56 -211 74
-145 198 -238 329 -247 39 -2 86 0 105 5 l34 9 -55 42 c-92 71 -158 169 -158
237 0 73 72 165 166 211 129 63 282 31 454 -96 123 -91 340 -333 396 -443 27
-52 27 -20 0 68 -94 301 -287 545 -524 664 -89 45 -224 88 -315 100 -88 12
-90 12 -167 0z"/>
<path d="M7365 5569 c-387 -56 -700 -343 -831 -764 -27 -88 -27 -120 0 -68 52
103 259 337 377 428 128 100 265 152 367 142 135 -14 272 -136 272 -242 0 -68
-64 -165 -156 -236 l-57 -43 34 -9 c19 -5 66 -7 105 -5 131 9 255 102 329 247
42 84 56 137 56 211 1 159 -147 311 -331 340 -73 11 -81 11 -165 -1z"/>
<path d="M3630 5535 c-17 -20 -5 -45 20 -45 11 0 23 7 26 15 6 15 -11 45 -26
45 -4 0 -13 -7 -20 -15z"/>
<path d="M6330 5535 c-17 -20 -5 -45 20 -45 11 0 23 7 26 15 6 15 -11 45 -26
45 -4 0 -13 -7 -20 -15z"/>
<path d="M3982 5448 c-21 -21 -14 -57 13 -70 22 -10 29 -9 47 10 19 18 20 25
10 47 -13 27 -49 34 -70 13z"/>
<path d="M4144 5445 c-4 -9 0 -23 8 -31 20 -20 50 -7 46 20 -4 26 -45 35 -54
11z"/>
<path d="M5807 5453 c-13 -12 -7 -41 10 -47 21 -8 48 17 40 38 -6 16 -38 22
-50 9z"/>
<path d="M5948 5435 c-10 -22 -9 -29 10 -47 18 -19 25 -20 47 -10 16 8 25 20
25 35 0 50 -62 66 -82 22z"/>
<path d="M3843 5420 c-46 -18 -56 -74 -20 -108 32 -30 71 -28 97 5 43 56 -11
129 -77 103z"/>
<path d="M4287 5423 c-13 -12 -7 -41 10 -47 21 -8 48 17 40 38 -6 16 -38 22
-50 9z"/>
<path d="M5664 5415 c-4 -9 0 -23 8 -31 20 -20 50 -7 46 20 -4 26 -45 35 -54
11z"/>
<path d="M6101 5417 c-37 -18 -48 -63 -24 -96 26 -35 68 -39 99 -10 28 27 31
59 7 87 -24 27 -53 34 -82 19z"/>
<path d="M4817 5398 c-29 -23 -39 -66 -22 -98 28 -53 103 -52 131 1 13 26 13
36 3 60 -19 47 -75 65 -112 37z"/>
<path d="M5099 5400 c-9 -5 -22 -23 -28 -39 -35 -84 92 -143 134 -62 35 68
-40 140 -106 101z"/>
<path d="M4482 5358 c-26 -26 -7 -78 28 -78 9 0 25 9 35 20 37 41 -24 97 -63
58z"/>
<path d="M5448 5345 c-9 -21 -8 -28 7 -45 31 -34 75 -20 75 25 0 48 -62 63
-82 20z"/>
<path d="M4115 5343 c-121 -44 -249 -152 -299 -255 -53 -109 -57 -206 -11
-314 l15 -37 35 70 c109 218 255 261 403 119 93 -88 122 -210 88 -359 -37
-159 -173 -384 -350 -582 l-71 -79 60 33 c185 103 361 263 454 415 58 94 114
241 130 346 6 36 11 112 11 170 0 178 -42 293 -142 385 -94 88 -224 123 -323
88z"/>
<path d="M5720 5345 c-74 -21 -127 -54 -181 -112 -94 -100 -124 -207 -116
-408 6 -147 22 -227 73 -349 85 -201 281 -404 519 -537 l60 -33 -71 79 c-143
162 -226 281 -293 426 -104 224 -93 401 32 516 152 140 293 98 402 -120 l35
-70 15 37 c46 109 42 205 -12 315 -39 80 -143 180 -234 225 -88 43 -152 52
-229 31z"/>
<path d="M3653 5315 c-52 -22 -76 -89 -53 -149 12 -33 66 -66 107 -66 41 0 98
48 107 91 8 42 -16 95 -56 119 -38 23 -61 24 -105 5z"/>
<path d="M6242 5310 c-40 -24 -64 -77 -56 -119 9 -43 66 -91 107 -91 41 0 95
33 107 66 24 61 -1 127 -55 150 -46 19 -64 18 -103 -6z"/>
<path d="M4916 5204 c-9 -22 17 -49 39 -40 10 3 15 15 13 28 -4 29 -42 37 -52
12z"/>
<path d="M5034 5205 c-8 -21 2 -45 19 -45 21 0 38 25 31 44 -8 20 -43 21 -50
1z"/>
<path d="M4584 5176 c-10 -26 4 -48 28 -44 17 2 23 10 23 28 0 18 -6 26 -23
28 -13 2 -25 -3 -28 -12z"/>
<path d="M4796 5174 c-9 -22 17 -49 39 -40 10 3 15 15 13 28 -4 29 -42 37 -52
12z"/>
<path d="M5154 5175 c-8 -21 2 -45 19 -45 21 0 38 25 31 44 -8 20 -43 21 -50
1z"/>
<path d="M5364 5176 c-10 -26 4 -48 28 -44 17 2 23 10 23 28 0 18 -6 26 -23
28 -13 2 -25 -3 -28 -12z"/>
<path d="M2602 5146 c-34 -32 -37 -38 -37 -91 0 -53 3 -59 37 -91 33 -29 45
-34 89 -34 44 0 55 4 84 33 86 86 29 217 -93 217 -34 0 -49 -6 -80 -34z"/>
<path d="M7242 5160 c-70 -43 -78 -136 -17 -197 29 -29 40 -33 84 -33 44 0 56
5 89 34 34 32 37 38 37 91 0 53 -3 59 -37 91 -31 28 -46 34 -80 34 -25 0 -57
-8 -76 -20z"/>
<path d="M4925 5106 c-16 -7 -38 -23 -49 -34 -17 -20 -17 -29 -6 -182 7 -88
10 -208 8 -266 l-5 -106 51 51 50 51 -2 217 c-1 120 -5 232 -9 250 -8 31 -9
31 -38 19z"/>
<path d="M5035 5067 c-4 -29 -8 -141 -8 -250 l-1 -198 50 -50 51 -51 -5 106
c-2 57 1 178 7 267 12 160 12 161 -10 185 -12 12 -34 27 -49 33 -28 9 -28 9
-35 -42z"/>
<path d="M2911 5062 c-31 -24 -31 -79 -1 -104 30 -24 62 -23 88 5 30 32 28 71
-4 96 -33 26 -55 26 -83 3z"/>
<path d="M7006 5059 c-33 -26 -34 -68 -3 -97 28 -27 57 -28 87 -4 30 25 30 80
-1 104 -28 23 -50 23 -83 -3z"/>
<path d="M4620 5005 c-17 -20 -5 -45 20 -45 11 0 23 7 26 15 6 15 -11 45 -26
45 -4 0 -13 -7 -20 -15z"/>
<path d="M5340 5005 c-17 -20 -5 -45 20 -45 11 0 23 7 26 15 6 15 -11 45 -26
45 -4 0 -13 -7 -20 -15z"/>
<path d="M3076 4974 c-30 -30 -13 -74 29 -74 43 0 59 44 27 73 -23 21 -36 21
-56 1z"/>
<path d="M6867 4972 c-30 -33 -15 -72 28 -72 42 0 59 44 29 74 -20 21 -37 20
-57 -2z"/>
<path d="M4827 4944 c-8 -8 1 -24 14 -24 5 0 9 7 9 15 0 15 -12 20 -23 9z"/>
<path d="M5150 4935 c0 -9 5 -15 11 -13 6 2 11 8 11 13 0 5 -5 11 -11 13 -6 2
-11 -4 -11 -13z"/>
<path d="M3580 4920 c-41 -41 -13 -112 45 -112 37 0 65 29 65 67 0 59 -68 87
-110 45z"/>
<path d="M6332 4924 c-29 -20 -30 -74 -2 -99 42 -38 110 -9 110 47 0 56 -60
86 -108 52z"/>
<path d="M2810 4880 c-24 -24 -24 -30 -7 -54 9 -12 23 -17 42 -14 25 2 31 8
33 33 3 19 -2 33 -14 42 -24 17 -30 17 -54 -7z"/>
<path d="M4040 4887 c-80 -41 -27 -166 58 -136 61 21 65 111 6 138 -31 14 -33
14 -64 -2z"/>
<path d="M5893 4888 c-33 -16 -48 -61 -33 -97 22 -54 103 -61 129 -12 36 67
-30 142 -96 109z"/>
<path d="M7136 4887 c-12 -9 -17 -23 -14 -42 2 -25 8 -31 33 -33 19 -3 33 2
42 14 17 24 17 30 -7 54 -24 24 -30 24 -54 7z"/>
<path d="M3190 4783 c-33 -228 35 -433 189 -576 100 -92 199 -124 301 -97 57
15 124 80 139 135 26 94 7 213 -44 281 -23 29 -110 82 -120 72 -3 -2 5 -31 16
-64 46 -131 -6 -214 -136 -214 -62 0 -105 20 -155 71 -73 75 -142 254 -157
407 -3 34 -9 65 -13 67 -5 3 -14 -34 -20 -82z"/>
<path d="M6787 4860 c-3 -8 -8 -40 -11 -70 -15 -148 -85 -325 -156 -399 -50
-51 -93 -71 -155 -71 -129 0 -182 82 -137 215 11 33 19 61 17 64 -10 9 -98
-45 -120 -73 -51 -68 -70 -187 -44 -281 15 -55 82 -120 139 -135 102 -27 201
5 301 97 78 73 133 157 166 256 23 72 27 98 27 207 -1 120 -15 222 -27 190z"/>
<path d="M4614 4806 c-10 -26 4 -48 28 -44 17 2 23 10 23 28 0 18 -6 26 -23
28 -13 2 -25 -3 -28 -12z"/>
<path d="M5334 4806 c-10 -26 4 -48 28 -44 17 2 23 10 23 28 0 18 -6 26 -23
28 -13 2 -25 -3 -28 -12z"/>
<path d="M4814 4735 c-8 -21 2 -45 19 -45 21 0 38 25 31 44 -8 20 -43 21 -50
1z"/>
<path d="M5136 4734 c-9 -22 17 -49 39 -40 10 3 15 15 13 28 -4 29 -42 37 -52
12z"/>
<path d="M3298 4695 c-9 -21 -8 -28 7 -45 31 -34 75 -20 75 25 0 48 -62 63
-82 20z"/>
<path d="M6632 4708 c-26 -26 -7 -78 28 -78 19 0 50 30 50 48 0 32 -54 54 -78
30z"/>
<path d="M4080 4667 c-47 -16 -80 -68 -80 -124 0 -122 171 -168 233 -63 9 15
17 48 17 73 0 56 -34 102 -88 117 -44 12 -38 12 -82 -3z"/>
<path d="M5833 4669 c-102 -30 -113 -183 -18 -235 80 -43 185 19 185 108 0 94
-78 153 -167 127z"/>
<path d="M4583 4604 c-3 -8 2 -23 11 -32 15 -15 17 -15 32 0 21 21 11 48 -16
48 -11 0 -23 -7 -27 -16z"/>
<path d="M5363 4604 c-3 -8 2 -23 11 -32 15 -15 17 -15 32 0 21 21 11 48 -16
48 -11 0 -23 -7 -27 -16z"/>
<path d="M4794 4575 c-4 -9 0 -23 8 -31 20 -20 50 -7 46 20 -4 26 -45 35 -54
11z"/>
<path d="M5157 4583 c-13 -12 -7 -41 10 -47 21 -8 48 17 40 38 -6 16 -38 22
-50 9z"/>
<path d="M3455 4545 c-14 -13 -25 -36 -25 -50 0 -35 42 -75 78 -75 36 0 72 37
72 74 0 34 -41 76 -75 76 -14 0 -37 -11 -50 -25z"/>
<path d="M6446 4549 c-53 -41 -18 -129 51 -129 32 0 73 42 73 75 0 33 -41 75
-73 75 -13 0 -36 -9 -51 -21z"/>
<path d="M4504 4405 c-9 -23 3 -45 25 -45 23 0 35 28 20 46 -15 18 -38 18 -45
-1z"/>
<path d="M5451 4407 c-17 -21 -3 -49 23 -45 15 2 21 10 21 28 0 28 -26 38 -44
17z"/>
<path d="M3961 4351 c-31 -31 -28 -84 5 -110 32 -25 46 -26 84 -6 64 33 41
127 -33 133 -26 2 -42 -3 -56 -17z"/>
<path d="M5930 4343 c-53 -67 31 -156 98 -106 36 27 42 83 13 112 -31 31 -84
28 -111 -6z"/>
<path d="M6559 3800 c-86 -15 -174 -79 -212 -156 -38 -75 -40 -220 -4 -306 23
-55 82 -113 140 -139 44 -19 68 -22 152 -21 55 0 120 7 145 14 l45 14 0 149 0
150 -65 0 -65 0 -3 -109 -3 -108 -64 4 c-44 3 -74 10 -92 24 -101 73 -97 289
6 348 43 25 148 26 204 2 29 -13 38 -14 42 -4 3 7 11 32 20 56 l15 43 -34 14
c-31 13 -67 20 -151 29 -16 2 -51 0 -76 -4z"/>
<path d="M3192 3698 c26 -121 81 -333 110 -428 l24 -75 66 -3 66 -3 40 128
c22 70 46 147 53 171 7 23 16 39 20 35 6 -7 79 -233 79 -245 0 -3 -26 -22 -57
-43 -91 -60 -181 -152 -245 -250 -70 -108 -75 -145 -21 -174 34 -18 43 -14 60
27 39 95 155 233 257 309 52 38 64 43 113 43 51 0 55 2 65 31 9 26 53 57 65
46 2 -2 -33 -64 -78 -138 -152 -252 -228 -429 -237 -556 -4 -70 -4 -73 26
-102 57 -58 152 -27 152 48 l0 30 -35 -15 c-20 -8 -40 -12 -45 -9 -29 18 6
136 85 289 54 106 186 329 212 358 11 12 34 18 76 20 l61 3 20 63 20 62 117 0
117 0 22 -65 22 -65 74 0 74 0 -26 73 c-42 116 -150 386 -184 460 l-32 67 -64
0 -64 0 -22 -42 c-12 -24 -52 -117 -89 -208 l-67 -165 -61 -7 c-34 -4 -71 -10
-83 -14 -17 -5 -20 -3 -14 11 9 24 60 229 84 338 l20 87 -73 0 -73 0 -7 -47
c-14 -98 -66 -348 -74 -356 -4 -4 -30 70 -58 165 l-50 173 -59 0 -58 0 -18
-65 c-46 -162 -79 -265 -87 -273 -4 -4 -11 4 -14 20 -15 67 -77 375 -77 379 0
2 -33 4 -74 4 l-74 0 20 -92z m1112 -154 c20 -53 36 -100 36 -105 0 -5 -36 -9
-81 -9 -61 0 -80 3 -77 13 40 111 74 197 79 197 3 0 23 -43 43 -96z"/>
<path d="M4500 3784 c0 -10 78 -150 147 -263 63 -103 63 -104 63 -178 0 -67
-4 -84 -36 -147 -28 -54 -93 -164 -108 -183 -1 -1 -19 4 -40 11 -96 33 -213
-42 -327 -210 -55 -82 -152 -174 -157 -149 -2 8 29 76 68 150 75 142 80 164
43 200 -22 22 -66 13 -120 -25 -40 -27 -42 -28 -48 -9 -5 16 -51 49 -68 49 -9
0 -146 -287 -167 -350 l-22 -64 23 -19 c40 -32 59 -19 89 63 36 101 66 146
141 212 35 31 65 55 66 54 2 -2 -22 -52 -53 -112 -67 -130 -80 -198 -45 -233
36 -36 86 -22 161 45 l38 35 7 -31 c15 -68 101 -79 174 -21 l39 31 10 -29 c25
-71 95 -65 181 14 32 30 61 55 65 55 3 0 6 -11 6 -24 0 -58 78 -106 144 -88
108 30 235 197 238 311 1 46 -18 116 -38 136 -23 22 -88 18 -142 -9 -58 -30
-130 -103 -172 -176 -43 -72 -101 -141 -139 -163 -29 -17 -31 -17 -31 -1 0 25
77 163 179 322 49 76 96 153 105 170 13 25 23 32 46 32 l30 0 0 115 0 115 48
78 c55 87 162 277 162 286 0 3 -33 6 -74 6 -61 0 -75 -3 -81 -17 -3 -10 -31
-64 -61 -121 -41 -76 -59 -100 -68 -93 -6 6 -36 60 -66 120 l-55 110 -77 0
c-43 1 -78 -2 -78 -5z m6 -839 c10 -25 -77 -163 -143 -226 -72 -69 -100 -75
-95 -19 9 113 210 320 238 245z m400 -10 c-24 -22 -32 -47 -26 -85 3 -25 9
-25 38 3 38 37 44 34 27 -13 -40 -113 -155 -217 -200 -180 -46 38 26 204 117
271 51 36 82 40 44 4z"/>
<path d="M5199 3723 c-43 -95 -124 -299 -170 -426 l-39 -108 71 3 72 3 21 60
21 60 119 0 120 0 20 -62 20 -63 73 0 c40 0 73 1 73 3 0 20 -152 410 -205 523
l-34 74 -66 0 -66 0 -30 -67z m99 -291 c-44 -2 -82 -1 -84 1 -2 2 15 52 38
111 l42 108 42 -108 42 -109 -80 -3z"/>
<path d="M5680 3490 l0 -300 70 0 70 0 2 192 3 193 67 -90 c37 -50 95 -136
130 -192 l63 -103 58 0 57 0 0 300 0 300 -65 0 -65 0 -2 -177 -3 -177 -55 80
c-30 43 -90 123 -133 177 l-78 97 -60 0 -59 0 0 -300z"/>
<path d="M6233 3258 c-6 -7 -22 -47 -37 -89 -26 -72 -27 -78 -12 -107 27 -52
40 -46 86 34 46 80 47 100 9 147 -23 30 -32 33 -46 15z"/>
<path d="M5913 3022 c-32 -37 -88 -105 -123 -151 -36 -45 -81 -103 -100 -128
-75 -95 -175 -132 -191 -70 -6 22 -4 29 9 34 82 27 182 102 234 176 31 43 40
97 22 125 -46 70 -243 -32 -324 -167 -37 -62 -85 -120 -133 -157 -23 -18 -43
-32 -44 -30 -7 7 29 89 81 181 59 105 66 136 40 173 -20 30 -47 28 -110 -8
l-53 -30 -30 30 c-16 17 -36 30 -43 30 -19 0 -164 -298 -180 -369 -11 -49 -10
-55 7 -67 32 -23 62 -18 70 14 23 94 67 169 140 242 41 41 77 72 80 69 3 -3
-17 -48 -44 -100 -80 -153 -88 -211 -35 -245 35 -23 86 -7 143 46 24 22 45 40
47 40 2 0 4 -9 4 -19 0 -11 10 -32 23 -46 41 -48 142 -43 221 10 43 29 46 30
46 11 0 -8 12 -24 26 -35 55 -43 159 -19 201 46 l18 27 5 -38 c3 -22 12 -44
22 -49 27 -17 91 8 146 58 27 25 53 45 56 45 3 0 6 -11 6 -25 0 -14 11 -37 25
-50 35 -36 81 -33 143 9 l50 34 6 -24 c10 -37 49 -58 93 -49 28 5 54 24 108
78 114 115 160 197 112 197 -8 0 -37 -29 -64 -65 -50 -64 -121 -130 -131 -120
-3 3 12 42 33 86 39 79 39 81 23 110 -15 25 -15 31 -3 35 21 8 30 69 15 104
-20 49 -89 57 -166 19 -53 -25 -141 -109 -181 -172 -49 -78 -165 -187 -198
-187 -10 0 26 64 101 176 79 119 88 150 53 185 -39 39 -43 36 -201 -246 l-39
-70 6 60 c11 102 33 163 76 209 21 24 39 52 39 63 0 23 -39 63 -63 63 -9 0
-42 -30 -74 -68z m595 -99 c3 -27 1 -31 -17 -26 -15 4 -21 1 -21 -11 0 -35
-50 -113 -109 -169 -93 -89 -127 -67 -73 46 71 152 211 253 220 160z m-798 12
c0 -22 -100 -120 -148 -144 l-43 -22 15 28 c46 88 176 190 176 138z m123 -167
c-3 -40 -12 -88 -19 -106 -12 -29 -17 -33 -46 -30 -26 2 -34 8 -36 26 -5 32
16 54 47 50 25 -3 26 0 31 52 5 49 14 80 25 80 2 0 1 -33 -2 -72z"/>
<path d="M0 400 l0 -400 5000 0 5000 0 0 400 0 400 -5000 0 -5000 0 0 -400z
m334 57 c52 -148 43 -145 85 -27 30 84 42 106 59 108 20 3 19 -1 -15 -95 -19
-54 -40 -113 -46 -131 -9 -27 -15 -32 -36 -30 -22 3 -29 16 -68 123 -24 65
-43 123 -43 127 0 4 8 8 18 8 12 0 25 -22 46 -83z m1127 54 c34 -34 37 -51 9
-51 -11 0 -20 4 -20 10 0 5 -11 17 -25 26 -34 22 -78 5 -73 -29 2 -17 15 -26
57 -39 29 -10 59 -23 67 -29 20 -17 17 -73 -5 -93 -44 -40 -138 -28 -160 20
-15 33 -14 34 8 34 10 0 21 -7 25 -15 16 -41 106 -38 106 4 0 25 -17 38 -64
46 -75 15 -103 83 -50 124 39 31 89 28 125 -8z m609 -43 l0 -72 39 38 c23 22
46 36 57 34 15 -3 12 -9 -19 -39 l-37 -36 41 -56 c38 -54 39 -57 17 -57 -15 1
-32 14 -50 40 -15 22 -32 40 -38 40 -5 0 -10 -18 -10 -40 0 -33 -3 -40 -20
-40 -19 0 -20 7 -20 130 0 123 1 130 20 130 18 0 20 -7 20 -72z m-1150 21 c0
-12 7 -19 20 -19 11 0 20 -7 20 -15 0 -8 -9 -15 -20 -15 -18 0 -20 -7 -20 -65
0 -58 2 -65 20 -65 11 0 20 -7 20 -16 0 -11 -8 -14 -32 -12 l-33 3 -3 74 c-3
63 -6 74 -22 78 -26 7 -26 33 0 33 13 0 20 7 20 18 0 10 3 22 6 25 11 10 24
-3 24 -24z m650 1 c0 -13 7 -20 20 -20 11 0 20 -7 20 -15 0 -8 -9 -15 -20 -15
-18 0 -20 -7 -20 -65 0 -58 2 -65 20 -65 11 0 20 -7 20 -16 0 -11 -8 -14 -32
-12 l-33 3 -3 74 c-3 63 -6 74 -22 78 -26 7 -26 33 0 33 13 0 20 7 20 20 0 11
7 20 15 20 8 0 15 -9 15 -20z m-945 -45 c14 -13 25 -36 25 -50 0 -24 -2 -25
-65 -25 -69 0 -82 -12 -49 -44 20 -20 48 -20 68 0 9 8 24 14 34 12 30 -6 -31
-58 -68 -58 -46 0 -90 47 -90 95 0 79 92 124 145 70z m189 4 c27 -22 35 -49
13 -49 -7 0 -20 9 -30 20 -34 40 -87 12 -87 -46 0 -58 52 -85 87 -44 20 23 43
26 43 6 0 -22 -49 -56 -82 -56 -19 0 -40 10 -59 29 -81 81 25 211 115 140z
m317 -8 c21 -22 29 -39 29 -66 0 -48 -44 -95 -90 -95 -46 0 -90 47 -90 95 0
48 44 95 90 95 22 0 41 -9 61 -29z m99 19 c0 -7 6 -7 19 0 29 15 41 12 41 -10
0 -13 -7 -20 -18 -20 -31 0 -42 -22 -42 -87 0 -56 -2 -63 -20 -63 -19 0 -20 7
-20 95 0 88 1 95 20 95 11 0 20 -5 20 -10z m551 -19 c21 -22 29 -39 29 -66 0
-48 -44 -95 -90 -95 -46 0 -90 47 -90 95 0 48 44 95 90 95 22 0 41 -9 61 -29z
m194 4 c14 -13 25 -29 25 -35 0 -17 -24 -11 -43 10 -33 39 -87 12 -87 -43 0
-58 53 -87 87 -47 20 23 43 26 43 6 0 -22 -49 -56 -82 -56 -44 0 -88 48 -88
95 0 79 92 124 145 70z m6585 18 c0 -16 -63 -198 -71 -207 -21 -23 -16 8 17
107 20 59 40 107 45 107 5 0 9 -3 9 -7z m-1856 -71 c11 -34 23 -62 27 -62 4 0
17 29 29 65 13 39 27 65 36 65 11 0 10 -9 -5 -47 -10 -27 -24 -65 -30 -85 -20
-62 -42 -50 -74 40 -31 87 -32 95 -15 90 7 -3 21 -32 32 -66z m760 52 c9 -8
16 -20 16 -25 0 -14 -20 -11 -36 6 -18 17 -24 18 -43 6 -23 -15 -6 -36 38 -50
36 -10 41 -15 41 -41 0 -32 -22 -50 -61 -50 -25 0 -59 26 -59 47 0 19 13 16
33 -7 20 -24 40 -26 57 -5 16 19 7 29 -42 44 -22 7 -40 21 -43 32 -15 46 63
79 99 43z m406 -31 l0 -47 30 29 c35 34 54 26 21 -9 l-23 -25 27 -35 c35 -46
11 -49 -27 -4 l-27 33 -1 -32 c0 -23 -5 -33 -15 -33 -12 0 -15 16 -15 85 0 69
3 85 15 85 11 0 15 -12 15 -47z m820 32 c0 -8 -9 -20 -19 -27 -18 -11 -18 -12
6 -31 31 -25 28 -66 -8 -86 -32 -18 -75 -8 -84 20 -10 30 2 35 23 9 14 -17 24
-21 41 -15 31 9 26 59 -6 63 -28 4 -29 10 -1 39 l21 23 -41 0 c-23 0 -42 5
-42 10 0 6 25 10 55 10 42 0 55 -4 55 -15z m140 5 c0 -5 -18 -10 -40 -10 -32
0 -40 -4 -40 -18 0 -15 6 -18 29 -14 21 3 33 -2 45 -19 21 -31 20 -55 -4 -79
-26 -26 -62 -26 -85 0 -23 26 -11 39 14 16 28 -26 61 -13 61 24 0 34 -28 48
-59 28 -27 -17 -31 -10 -24 40 l6 42 48 0 c27 0 49 -4 49 -10z m139 -16 c59
-75 -24 -189 -89 -124 -14 14 -20 33 -20 65 0 79 66 114 109 59z m147 9 c20
-20 1 -32 -21 -13 -19 15 -40 7 -55 -20 -11 -20 -10 -21 9 -11 42 23 81 1 81
-46 0 -57 -61 -82 -100 -43 -32 32 -23 117 14 142 19 13 54 9 72 -9z m140 -4
c43 -47 14 -149 -43 -149 -38 0 -63 34 -63 85 0 75 62 112 106 64z m148 2 c29
-32 32 -91 6 -123 -44 -57 -110 -23 -110 57 0 74 62 113 104 66z m146 -35 c0
-34 5 -57 13 -60 10 -5 10 -7 0 -12 -7 -3 -13 -14 -13 -25 0 -10 -7 -19 -15
-19 -8 0 -15 9 -15 20 0 17 -7 20 -40 20 -22 0 -40 3 -40 6 0 14 86 123 98
124 8 0 12 -17 12 -54z m150 39 c0 -8 -9 -20 -19 -27 -18 -11 -18 -12 6 -31
31 -25 28 -66 -8 -86 -32 -18 -75 -8 -84 20 -10 30 2 35 23 9 14 -17 24 -21
41 -15 31 9 26 59 -6 63 -28 4 -29 10 -1 39 l21 23 -41 0 c-23 0 -42 5 -42 10
0 6 25 10 55 10 42 0 55 -4 55 -15z m-2590 -10 c0 -8 7 -15 15 -15 8 0 15 -4
15 -10 0 -5 -7 -10 -15 -10 -11 0 -15 -12 -15 -45 0 -33 4 -45 15 -45 8 0 15
-4 15 -10 0 -16 -47 -11 -54 6 -3 9 -6 33 -6 54 0 21 -6 41 -12 44 -10 5 -10
7 0 12 6 3 12 12 12 20 0 8 7 14 15 14 8 0 15 -7 15 -15z m430 0 c0 -8 7 -15
15 -15 8 0 15 -4 15 -10 0 -5 -7 -10 -15 -10 -11 0 -15 -12 -15 -45 0 -33 4
-45 15 -45 8 0 15 -4 15 -10 0 -16 -47 -11 -54 6 -3 9 -6 33 -6 54 0 21 -6 41
-12 44 -10 5 -10 7 0 12 6 3 12 12 12 20 0 8 7 14 15 14 8 0 15 -7 15 -15z
m-638 -32 c10 -9 18 -24 18 -35 0 -15 -8 -18 -45 -18 -47 0 -56 -9 -30 -30 13
-11 20 -11 40 0 31 16 42 8 20 -14 -36 -36 -95 -6 -95 47 0 57 52 86 92 50z
m132 1 c31 -31 16 -46 -16 -17 -25 23 -53 6 -53 -32 0 -38 28 -55 53 -32 32
29 47 14 16 -17 -35 -36 -94 -6 -94 47 0 57 58 88 94 51z m209 4 c28 -22 32
-73 8 -97 -41 -41 -101 -15 -101 42 0 55 52 85 93 55z m107 1 c0 -4 -9 -13
-20 -19 -15 -8 -20 -21 -20 -55 0 -33 -4 -45 -15 -45 -12 0 -15 14 -15 64 l0
64 35 0 c19 0 35 -4 35 -9z m331 -10 c37 -37 8 -109 -45 -109 -30 0 -56 30
-56 63 0 61 59 88 101 46z m123 5 c31 -31 16 -46 -16 -17 -25 23 -53 6 -53
-32 0 -38 28 -55 53 -32 32 29 47 14 16 -17 -35 -36 -94 -6 -94 47 0 57 58 88
94 51z m310 0 c31 -31 16 -46 -16 -17 -25 23 -53 6 -53 -32 0 -38 28 -55 53
-32 32 29 47 14 16 -17 -35 -36 -94 -6 -94 47 0 57 58 88 94 51z m136 -4 c56
-56 -23 -146 -82 -93 -10 9 -18 30 -18 46 0 60 59 88 100 47z m198 7 c14 -10
17 -117 2 -117 -5 0 -10 20 -10 44 0 54 -24 81 -46 51 -8 -10 -14 -36 -14 -57
0 -58 -19 -45 -22 15 -3 44 -6 52 -23 52 -17 0 -20 -8 -23 -52 -2 -38 -7 -53
-18 -53 -11 0 -14 15 -14 64 l0 64 78 -2 c42 -1 83 -5 90 -9z m-448 -102 c0
-8 -7 -15 -15 -15 -8 0 -15 7 -15 15 0 8 7 15 15 15 8 0 15 -7 15 -15z"/>
<path d="M530 425 c-18 -22 -9 -27 46 -23 46 3 47 4 30 21 -22 21 -59 22 -76
2z"/>
<path d="M1037 422 c-34 -38 -10 -112 36 -112 26 0 47 29 47 65 0 58 -49 85
-83 47z"/>
<path d="M1687 422 c-34 -38 -10 -112 36 -112 26 0 47 29 47 65 0 58 -49 85
-83 47z"/>
<path d="M8899 424 c-19 -23 -16 -81 4 -101 26 -27 51 -6 55 46 5 62 -28 92
-59 55z"/>
<path d="M9050 375 c-26 -31 13 -82 44 -56 19 16 21 42 4 59 -16 16 -33 15
-48 -3z"/>
<path d="M9189 424 c-19 -23 -16 -81 4 -101 26 -27 51 -6 55 46 5 62 -28 92
-59 55z"/>
<path d="M9339 424 c-19 -23 -16 -81 4 -101 26 -27 51 -6 55 46 5 62 -28 92
-59 55z"/>
<path d="M9496 385 c-21 -31 -20 -35 4 -35 16 0 20 7 20 30 0 36 -3 37 -24 5z"/>
<path d="M6840 385 c-11 -13 -7 -15 25 -15 32 0 36 2 25 15 -7 8 -18 15 -25
15 -7 0 -18 -7 -25 -15z"/>
<path d="M7180 385 c-15 -18 -5 -64 15 -72 35 -13 61 47 33 75 -16 16 -33 15
-48 -3z"/>
<path d="M7610 386 c-15 -19 -9 -56 12 -69 34 -22 66 41 36 71 -16 16 -33 15
-48 -2z"/>
<path d="M8180 386 c-15 -19 -9 -56 12 -69 34 -22 66 41 36 71 -16 16 -33 15
-48 -2z"/>
</g>
</svg>
